<?xml version="1.0" standalone="no"?>
<!DOCTYPE svg PUBLIC "-//W3C//DTD SVG 20010904//EN"
 "http://www.w3.org/TR/2001/REC-SVG-20010904/DTD/svg10.dtd">
<svg version="1.0" xmlns="http://www.w3.org/2000/svg"
 width="1000.000000pt" height="1000.000000pt" viewBox="0 0 1000.000000 1000.000000"
 preserveAspectRatio="xMidYMid meet">
<metadata>
Created by potrace 1.14, written by Peter Selinger 2001-2017
</metadata>
<g transform="translate(0.000000,1000.000000) scale(0.100000,-0.100000)"
fill="#000000" stroke="none">
<path d="M1097 6385 c-103 -28 -190 -109 -234 -216 -17 -41 -18 -109 -18
-1174 l0 -1130 26 -56 c37 -79 90 -133 167 -171 61 -30 75 -33 157 -33 71 0
99 5 130 21 22 11 221 125 441 252 221 128 406 232 410 232 5 0 87 -45 183
-100 189 -108 245 -127 340 -116 144 17 254 114 296 260 34 117 -8 263 -99
343 -54 47 -543 331 -611 355 -64 22 -146 22 -210 0 -27 -10 -157 -79 -287
-155 -130 -75 -239 -137 -242 -137 -3 0 -7 354 -8 788 l-3 787 -27 57 c-74
158 -245 239 -411 193z"/>
<path d="M3644 6386 c-23 -7 -79 -36 -125 -63 -123 -74 -747 -432 -757 -435
-5 -2 -80 38 -168 88 -205 116 -212 119 -314 119 -76 0 -93 -4 -152 -33 -77
-38 -130 -92 -167 -171 -22 -47 -26 -70 -26 -141 0 -71 4 -94 27 -142 14 -31
46 -76 70 -100 50 -49 568 -350 633 -367 55 -15 143 -14 196 2 24 8 154 78
289 156 l245 141 5 -792 5 -793 28 -56 c32 -67 109 -142 175 -172 l47 -22
1325 0 1325 0 67 32 c85 40 151 106 191 191 l32 67 3 203 3 202 -1176 0
c-1035 0 -1180 2 -1212 15 -50 21 -72 42 -94 90 -17 37 -19 78 -19 593 0 475
2 558 15 589 21 50 42 72 90 94 38 18 121 19 2060 19 1945 0 2022 -1 2061 -19
128 -58 136 -234 14 -305 -34 -20 -53 -21 -585 -26 l-550 -5 -56 -28 c-67 -32
-142 -109 -172 -175 -17 -37 -22 -66 -22 -137 0 -161 -37 -115 609 -763 510
-512 578 -576 636 -605 l65 -32 305 0 c300 0 306 0 352 23 75 38 134 96 170
170 30 59 33 76 33 152 0 76 -4 93 -33 152 -38 77 -92 130 -171 167 -53 25
-65 26 -241 29 l-185 3 -173 172 -172 172 362 5 363 5 56 28 c67 32 142 109
172 175 22 47 22 51 22 667 0 616 0 620 -22 667 -30 66 -105 143 -172 175
l-56 28 -2595 2 c-2100 1 -2603 -1 -2636 -11z"/>
<path d="M4703 5335 c-102 -31 -176 -96 -222 -195 -22 -46 -26 -69 -26 -140 0
-76 4 -93 33 -152 38 -77 92 -130 171 -167 l56 -26 943 -3 942 -2 0 184 c0
156 -3 193 -20 247 -38 120 -129 211 -249 249 -61 19 -89 20 -825 19 -600 0
-770 -3 -803 -14z"/>
</g>
</svg>
